       <svg xmlns="http://www.w3.org/2000/svg" width="467" height="452" viewBox="0 0 467 452">
        <g>
        <path d="M 27.21 349.83 C26.02,352.36 24.79,353.54 23.25,353.61 C20.28,353.76 19.32,352.38 18.67,347.00 C18.37,344.52 17.64,339.55 17.05,335.93 C16.30,331.39 16.05,286.48 16.23,190.43 L 16.50 51.50 L 20.18 44.50 C22.21,40.65 24.98,34.96 26.33,31.86 C27.69,28.75 30.30,24.77 32.15,23.01 C36.57,18.78 45.77,14.27 54.87,11.86 C62.04,9.96 66.03,9.92 197.87,10.22 C298.53,10.46 334.27,10.84 336.50,11.71 C338.15,12.36 345.44,13.04 352.70,13.22 C359.96,13.41 366.15,13.81 366.46,14.12 C366.77,14.44 361.86,19.87 355.56,26.21 C345.42,36.39 339.39,41.00 336.22,41.00 C335.68,41.00 334.99,41.93 334.69,43.07 C334.39,44.22 333.33,45.36 332.32,45.63 C330.38,46.13 326.00,52.11 326.00,54.25 C326.00,55.51 316.98,62.00 315.23,62.00 C314.74,62.00 313.74,63.12 313.00,64.50 C312.26,65.88 311.29,67.00 310.83,67.00 C310.37,67.00 310.00,67.89 310.00,68.97 C310.00,70.82 304.49,75.90 303.28,75.16 C302.97,74.98 302.45,75.24 302.11,75.75 C301.21,77.11 295.29,78.95 293.26,78.50 C292.29,78.28 288.35,77.40 284.50,76.54 C265.15,72.20 260.37,71.64 243.00,71.66 C220.75,71.69 205.42,73.76 188.50,78.99 C176.77,82.63 159.54,90.34 149.83,96.30 C142.72,100.67 134.00,108.02 133.88,109.75 C133.66,113.00 134.13,114.49 135.77,115.75 C137.94,117.43 140.41,116.51 146.35,111.82 C159.22,101.65 180.33,91.48 197.67,87.11 C217.76,82.04 241.09,81.63 259.50,86.03 C266.04,87.60 280.94,94.69 281.67,96.59 C282.27,98.15 270.94,110.91 267.82,112.19 C266.89,112.58 265.67,113.75 265.10,114.81 C264.54,115.87 258.88,122.04 252.54,128.53 C246.19,135.01 241.00,140.70 241.00,141.16 C241.00,142.48 239.29,142.14 237.65,140.50 C235.54,138.40 231.34,136.95 229.26,137.62 C226.11,138.63 222.52,140.48 221.82,141.45 C221.04,142.54 208.23,140.32 206.25,138.75 C205.56,138.20 205.00,136.54 205.00,135.05 C205.00,133.52 204.00,131.41 202.69,130.17 C200.57,128.19 199.34,128.00 188.44,128.03 C174.69,128.07 173.31,128.66 171.85,135.16 C170.87,139.53 168.59,142.95 166.60,143.06 C165.99,143.09 163.25,144.18 160.50,145.49 L 155.50 147.87 L 152.45 144.93 C147.25,139.92 144.83,140.71 134.77,150.73 C125.07,160.39 124.11,162.87 128.50,167.00 C131.75,170.05 131.65,171.81 127.81,180.10 C124.90,186.40 124.33,187.03 121.06,187.55 C117.71,188.09 115.74,188.32 114.60,189.41 C112.99,190.94 112.99,194.16 113.00,202.32 C113.00,202.80 113.00,203.30 113.00,203.82 C113.00,215.99 113.22,217.89 114.83,219.35 C115.83,220.26 117.80,221.00 119.21,221.00 C122.62,221.00 123.83,222.70 125.25,229.46 C126.39,234.90 126.32,235.37 123.64,240.32 C120.70,245.76 120.69,249.67 123.60,252.08 C124.37,252.72 125.00,254.14 125.00,255.23 C125.00,256.90 124.57,257.10 122.25,256.51 C120.74,256.11 118.09,255.65 116.36,255.48 C113.56,255.20 113.15,255.50 112.61,258.21 C112.27,259.88 112.00,262.32 112.00,263.62 C112.00,266.04 108.65,270.31 107.58,269.25 C107.26,268.93 107.00,269.21 107.00,269.88 C107.00,270.54 106.20,271.95 105.21,273.00 C102.26,276.17 99.42,274.59 97.50,268.70 C96.58,265.89 95.19,262.68 94.41,261.57 C93.64,260.46 93.00,258.59 93.00,257.40 C93.00,256.22 92.35,253.41 91.55,251.15 C90.76,248.90 90.50,246.81 90.98,246.51 C91.47,246.21 94.09,247.29 96.82,248.89 L 101.78 251.82 L 104.89 248.61 C106.60,246.85 108.00,244.85 108.00,244.16 C108.00,242.26 104.07,234.93 100.87,230.86 C99.29,228.85 98.00,226.95 98.00,226.62 C98.00,226.30 96.19,222.99 93.97,219.27 C91.76,215.55 89.59,211.86 89.15,211.07 C86.44,206.12 81.18,207.32 77.40,213.74 C70.28,225.84 62.20,243.03 62.71,245.00 C63.94,249.70 71.12,250.03 73.19,245.47 C73.81,244.11 74.92,243.00 75.64,243.00 C77.13,243.00 77.20,243.30 79.32,258.50 C80.85,269.50 81.20,271.58 82.97,280.00 C83.49,282.48 84.10,286.41 84.32,288.74 C84.55,291.07 85.22,293.56 85.81,294.27 C87.24,295.99 85.96,297.90 83.53,297.68 C82.29,297.56 81.09,298.52 80.21,300.31 C79.46,301.85 77.78,303.51 76.48,304.01 C75.18,304.50 73.58,305.94 72.92,307.20 C72.25,308.47 70.59,310.40 69.21,311.50 C67.83,312.60 66.21,314.13 65.60,314.89 C65.00,315.66 60.79,320.00 56.25,324.53 C51.71,329.07 48.00,333.16 48.00,333.62 C48.00,336.17 37.54,343.56 31.22,345.47 C29.95,345.85 28.18,347.78 27.21,349.83 ZM 146.50 228.00 C147.28,230.20 147.54,232.00 147.08,232.00 C145.57,232.00 144.52,230.10 138.11,215.74 C134.96,208.68 134.80,208.54 128.81,207.54 C124.04,206.75 122.67,203.49 125.98,200.81 C127.21,199.82 129.23,199.00 130.46,199.00 C133.56,199.00 135.62,196.27 136.40,191.13 C136.76,188.73 138.85,183.30 141.03,179.06 C143.21,174.82 145.00,170.96 145.00,170.48 C145.00,170.00 143.80,167.88 142.34,165.77 L 139.69 161.94 L 142.53 158.97 C145.99,155.35 146.99,155.29 150.00,158.50 C153.09,161.79 154.72,161.66 162.22,157.57 C165.67,155.69 171.20,153.45 174.49,152.61 C181.18,150.88 183.00,149.13 183.00,144.38 C183.00,142.01 183.54,140.96 185.00,140.50 C188.23,139.47 191.00,140.86 191.00,143.50 C191.00,149.43 195.79,153.62 206.50,157.04 C210.18,158.21 212.89,160.40 212.97,162.25 C213.02,163.41 208.54,163.14 207.30,161.90 C205.55,160.15 191.01,158.01 185.00,158.62 C179.15,159.21 168.46,163.10 163.50,166.45 C158.09,170.09 151.01,178.38 147.65,185.00 C143.74,192.69 141.50,204.67 142.53,212.32 C143.59,220.14 143.83,221.09 145.08,222.60 C145.72,223.37 145.98,224.00 145.67,224.00 C145.35,224.00 145.72,225.80 146.50,228.00 ZM 167.62 212.14 C167.56,212.76 166.53,213.63 165.34,214.07 C162.79,215.01 160.60,213.01 158.91,208.17 C157.49,204.10 159.53,188.12 161.57,187.34 C162.30,187.05 163.81,185.29 164.92,183.41 C166.03,181.53 167.61,180.00 168.43,180.00 C169.26,180.00 170.41,179.10 171.00,178.00 C171.59,176.90 173.04,176.00 174.22,176.00 C175.41,176.00 178.90,175.48 181.99,174.84 C186.51,173.91 188.44,173.95 191.96,175.09 C197.03,176.73 198.55,178.66 197.64,182.30 C196.88,185.33 191.45,190.80 188.43,191.59 C187.29,191.88 185.61,193.38 184.71,194.92 C181.57,200.23 172.55,209.00 170.23,209.00 C169.01,209.00 167.94,209.45 167.88,210.00 C167.81,210.55 167.69,211.51 167.62,212.14 Z" fill="rgb(53,124,224)"/>
        <path d="M 173.57 277.43 C174.83,278.69 177.62,279.00 187.74,279.00 C202.70,279.00 204.00,278.37 204.00,271.09 L 204.00 266.48 L 210.50 264.15 C214.07,262.87 217.24,261.41 217.55,260.91 C218.65,259.13 221.66,260.04 224.50,263.00 C229.16,267.87 231.23,267.15 241.19,257.19 C251.15,247.23 251.76,245.41 246.88,240.38 L 243.76 237.15 L 247.13 228.60 L 250.50 220.04 L 254.92 220.02 C262.36,219.98 263.00,218.74 263.00,204.17 C263.00,189.25 262.38,188.00 254.94,188.00 L 250.19 188.00 L 248.49 182.59 C247.55,179.62 246.00,175.91 245.04,174.34 C243.30,171.52 243.31,171.48 246.65,167.75 C248.49,165.68 250.00,163.04 250.00,161.87 C250.00,160.55 246.72,156.39 241.32,150.87 C231.48,140.81 229.60,140.18 224.08,145.04 C222.20,146.70 220.40,147.93 220.08,147.77 C219.76,147.62 216.02,146.14 211.76,144.49 L 204.02 141.50 L 204.01 137.08 C203.99,129.63 202.75,129.00 188.10,129.02 C181.79,129.02 176.04,129.34 174.50,129.75 C176.57,128.27 180.38,128.05 188.44,128.03 C199.34,128.00 200.57,128.19 202.69,130.17 C204.00,131.41 205.00,133.52 205.00,135.05 C205.00,136.54 205.56,138.20 206.25,138.75 C208.23,140.32 221.04,142.54 221.82,141.45 C222.52,140.48 226.11,138.63 229.26,137.62 C231.34,136.95 235.54,138.40 237.65,140.50 C239.29,142.14 241.00,142.48 241.00,141.16 C241.00,140.70 246.19,135.01 252.54,128.53 C258.88,122.04 264.54,115.87 265.10,114.81 C265.67,113.75 266.89,112.58 267.82,112.19 C270.94,110.91 282.27,98.15 281.67,96.59 C280.94,94.69 266.04,87.60 259.50,86.03 C254.53,84.85 249.20,84.01 243.68,83.52 C251.89,83.88 259.55,84.56 263.83,85.46 C281.83,89.25 303.40,98.51 317.50,108.50 C326.51,114.88 343.58,131.42 350.49,140.45 C365.50,160.09 377.38,190.40 378.71,212.50 C379.02,217.50 378.88,221.14 378.40,220.69 C377.93,220.24 376.18,217.32 374.52,214.19 C371.97,209.39 371.03,208.46 368.50,208.24 C364.98,207.93 363.50,208.76 362.65,211.50 C362.09,213.31 365.34,219.87 379.34,245.17 C380.26,246.84 381.89,248.01 383.66,248.28 L 386.50 248.70 L 383.37 248.85 C380.81,248.97 379.60,248.22 376.71,244.69 C374.77,242.32 372.21,238.61 371.03,236.44 C366.85,228.79 362.37,227.45 359.51,232.99 C358.73,234.50 355.59,238.32 352.55,241.50 C345.40,248.94 345.22,251.74 351.66,255.49 C354.67,257.24 357.01,260.66 357.00,263.30 C356.99,263.96 355.98,263.28 354.75,261.80 C353.42,260.20 351.28,258.98 349.51,258.80 C347.02,258.55 346.13,257.67 344.21,253.62 L 341.90 248.74 L 343.95 246.56 C347.81,242.45 346.72,238.94 339.48,232.13 C332.65,225.71 328.63,224.33 326.00,227.50 C324.41,229.42 322.59,229.39 317.28,227.36 C313.44,225.90 313.00,225.39 313.00,222.44 C313.00,216.99 311.10,216.00 300.65,216.00 C290.42,216.00 287.00,217.37 287.00,221.49 C287.00,224.61 284.80,226.68 279.96,228.13 C276.58,229.14 275.74,229.07 274.17,227.66 C270.43,224.27 266.80,225.50 260.16,232.41 C253.36,239.50 252.43,242.70 256.07,246.58 L 258.14 248.78 L 255.56 253.89 C253.33,258.27 252.55,259.00 250.05,259.00 C244.98,259.00 244.00,261.04 244.00,271.57 C244.00,282.20 245.44,285.00 250.92,285.00 C253.46,285.00 254.06,285.59 255.58,289.58 C257.22,293.87 257.23,294.34 255.67,296.99 C252.74,301.95 253.49,304.05 260.78,311.28 C268.04,318.48 270.16,319.24 274.22,316.04 C276.67,314.12 276.80,314.12 281.60,315.94 C285.89,317.56 286.57,318.22 287.06,321.18 C287.99,326.83 288.31,326.99 299.31,327.18 L 309.50 327.36 L 299.50 327.94 C294.00,328.26 288.77,328.37 287.87,328.18 C286.98,327.99 285.18,325.73 283.87,323.17 C279.92,315.39 278.82,315.84 262.10,332.00 C258.97,335.02 254.13,339.52 251.35,342.00 C248.57,344.48 245.98,347.46 245.61,348.64 C245.24,349.81 243.26,351.90 241.22,353.28 C235.55,357.10 230.22,362.38 229.84,364.55 C229.65,365.62 229.19,366.74 228.80,367.03 C225.26,369.70 242.46,371.69 254.75,370.03 C258.46,369.53 262.62,368.88 264.00,368.58 C272.30,366.81 276.74,365.61 278.50,364.66 C279.60,364.06 280.88,363.69 281.36,363.82 C281.83,363.96 282.73,363.68 283.36,363.20 C283.98,362.73 287.42,361.30 291.00,360.04 C294.58,358.77 298.62,356.96 300.00,356.00 C301.38,355.04 304.52,353.25 307.00,352.01 C309.48,350.78 313.30,348.46 315.50,346.85 C323.41,341.09 327.13,339.00 329.49,339.00 C330.80,339.00 332.11,339.37 332.39,339.82 C332.67,340.27 331.65,340.46 330.13,340.23 C328.24,339.95 326.43,340.60 324.43,342.25 C307.82,356.01 284.47,366.84 260.91,371.72 C247.71,374.46 218.77,374.16 205.12,371.14 C158.98,360.96 123.15,333.01 103.00,291.50 C95.00,275.03 88.07,248.34 89.15,238.16 L 89.50 234.82 L 93.23 241.34 C97.13,248.13 99.57,249.83 102.89,248.06 C106.56,246.10 106.38,243.39 102.07,235.40 C99.83,231.25 98.00,227.44 98.00,226.94 C98.00,226.44 96.19,222.99 93.97,219.27 C96.19,222.99 98.00,226.30 98.00,226.62 C98.00,226.95 99.29,228.85 100.87,230.86 C104.07,234.93 108.00,242.26 108.00,244.16 C108.00,244.85 106.60,246.85 104.89,248.61 L 101.78 251.82 L 96.82 248.89 C94.09,247.29 91.47,246.21 90.98,246.51 C90.50,246.81 90.76,248.90 91.55,251.15 C92.35,253.41 93.00,256.22 93.00,257.40 C93.00,258.59 93.64,260.46 94.41,261.57 C95.19,262.68 96.58,265.89 97.50,268.70 C99.42,274.59 102.26,276.17 105.21,273.00 C106.20,271.95 107.00,270.54 107.00,269.88 C107.00,269.21 107.26,268.93 107.58,269.25 C108.65,270.31 112.00,266.04 112.00,263.62 C112.00,262.32 112.27,259.88 112.61,258.21 C113.15,255.50 113.56,255.20 116.36,255.48 C118.09,255.65 120.74,256.11 122.25,256.51 C124.57,257.10 125.00,256.90 125.00,255.23 C125.00,254.14 124.37,252.72 123.60,252.08 C120.69,249.67 120.70,245.76 123.64,240.32 C126.32,235.37 126.39,234.90 125.25,229.46 C123.83,222.70 122.62,221.00 119.21,221.00 C117.80,221.00 115.83,220.26 114.83,219.35 C113.64,218.27 113.21,216.93 113.06,211.32 C113.32,219.84 114.60,220.00 120.96,220.00 C124.47,220.00 125.20,220.38 126.18,222.75 C126.80,224.26 128.38,227.94 129.68,230.93 L 132.05 236.35 L 129.03 240.12 C124.37,245.91 124.87,247.42 134.77,257.27 C144.72,267.18 146.56,267.78 151.66,262.84 L 154.92 259.69 L 160.71 262.27 C163.89,263.70 167.74,265.17 169.25,265.54 C171.78,266.16 172.00,266.61 172.00,271.04 C172.00,274.09 172.58,276.43 173.57,277.43 ZM 188.50 79.00 C182.48,80.86 175.01,83.80 167.86,87.02 C175.01,83.80 182.48,80.86 188.50,78.99 C205.42,73.76 220.75,71.69 243.00,71.66 C260.37,71.64 265.15,72.20 284.50,76.54 C288.35,77.40 292.29,78.28 293.26,78.50 C295.29,78.95 301.21,77.11 302.11,75.75 C302.45,75.24 302.97,74.98 303.28,75.16 C304.49,75.90 310.00,70.82 310.00,68.97 C310.00,67.89 310.37,67.00 310.83,67.00 C311.29,67.00 312.26,65.88 313.00,64.50 C313.74,63.12 314.74,62.00 315.23,62.00 C316.98,62.00 326.00,55.51 326.00,54.25 C326.00,52.11 330.38,46.13 332.32,45.63 C333.33,45.36 334.39,44.22 334.69,43.07 C334.99,41.93 335.68,41.00 336.22,41.00 C339.39,41.00 345.42,36.39 355.56,26.21 C361.86,19.87 366.77,14.44 366.46,14.12 C366.15,13.81 359.96,13.41 352.70,13.22 C345.44,13.04 338.15,12.36 336.50,11.71 C334.27,10.84 298.53,10.46 197.87,10.22 C169.68,10.16 147.34,10.11 129.55,10.09 C154.38,10.04 187.94,10.03 233.54,10.02 C243.67,10.02 253.21,10.02 262.22,10.02 C400.41,9.98 410.55,9.98 418.93,13.81 C420.14,14.37 421.31,15.00 422.83,15.72 C430.28,19.28 442.70,31.65 446.38,39.17 C447.26,40.96 448.00,42.42 448.62,43.92 C451.99,52.04 451.97,61.56 451.80,133.04 C451.79,135.30 451.78,137.62 451.78,140.00 C451.68,183.12 451.49,215.09 451.35,215.09 C451.34,215.09 451.33,214.90 451.32,214.50 C450.28,174.40 448.38,149.00 446.40,149.00 C444.89,149.00 440.29,152.14 439.00,154.06 C438.17,155.28 436.04,157.64 434.25,159.30 C432.46,160.96 431.00,163.15 431.00,164.16 C431.00,165.17 430.37,166.00 429.59,166.00 C427.58,166.00 418.75,173.20 417.21,176.09 C416.50,177.42 414.31,179.62 412.33,180.98 C410.36,182.33 407.59,185.17 406.18,187.30 C404.20,190.30 403.12,191.06 401.36,190.73 C399.56,190.38 398.88,190.92 398.04,193.31 C397.47,194.96 396.10,196.95 395.00,197.71 C393.66,198.65 393.00,200.25 393.00,202.56 C393.00,206.27 394.80,207.15 397.00,204.50 C399.60,201.37 405.09,203.96 406.55,209.00 C407.23,211.38 407.18,211.42 405.38,209.84 C400.32,205.38 396.88,207.33 391.43,217.79 L 390.01 220.50 L 390.00 217.00 C389.98,210.87 387.13,194.29 384.64,185.75 C376.67,158.52 363.66,136.53 343.97,117.00 C303.18,76.57 243.48,61.98 188.50,79.00 ZM 27.21 349.83 C28.18,347.78 29.95,345.85 31.22,345.47 C37.54,343.56 48.00,336.17 48.00,333.62 C48.00,333.16 51.71,329.07 56.25,324.53 C60.79,320.00 65.00,315.66 65.60,314.89 C66.21,314.13 67.83,312.60 69.21,311.50 C70.59,310.40 72.25,308.47 72.92,307.20 C73.58,305.94 75.18,304.50 76.48,304.01 C77.78,303.51 79.46,301.85 80.21,300.31 C81.09,298.52 82.29,297.56 83.53,297.68 C85.96,297.90 87.24,295.99 85.81,294.27 C85.22,293.56 84.55,291.07 84.32,288.74 C84.10,286.41 83.49,282.48 82.97,280.00 C81.20,271.58 80.85,269.50 79.32,258.50 C77.20,243.30 77.13,243.00 75.64,243.00 C74.92,243.00 73.81,244.11 73.19,245.47 C72.56,246.86 71.45,247.80 70.18,248.30 C71.79,247.31 73.28,245.17 74.84,241.73 L 77.68 235.50 L 78.90 244.50 C83.84,280.82 95.30,306.96 117.31,332.13 C143.00,361.49 181.18,380.70 220.04,383.80 L 229.50 384.56 L 207.87 385.99 L 202.96 390.13 C200.26,392.41 197.81,395.01 197.53,395.92 C197.24,396.82 194.89,399.35 192.32,401.53 C186.26,406.65 176.89,416.14 173.53,420.55 C172.08,422.45 170.44,424.00 169.88,424.00 C168.55,424.00 166.86,425.88 165.00,429.44 C163.42,432.45 162.57,433.06 157.13,435.09 C154.45,436.09 154.03,436.57 155.13,437.42 C155.88,438.02 156.50,439.40 156.50,440.50 C156.50,442.27 157.43,442.59 164.50,443.28 C168.90,443.71 186.00,444.43 202.50,444.87 C226.75,445.52 215.91,445.70 146.00,445.78 L 59.50 445.88 L 53.00 443.61 C43.37,440.25 40.67,438.59 32.98,431.35 C25.23,424.03 19.03,413.31 17.06,403.79 C16.37,400.46 16.11,359.03 16.19,263.79 C16.25,309.94 16.53,332.77 17.05,335.93 C17.64,339.55 18.37,344.52 18.67,347.00 C19.32,352.38 20.28,353.76 23.25,353.61 C24.79,353.54 26.02,352.36 27.21,349.83 ZM 146.50 228.00 C145.72,225.80 145.35,224.00 145.67,224.00 C145.98,224.00 145.72,223.37 145.08,222.60 C143.83,221.09 143.59,220.14 142.53,212.32 C141.50,204.67 143.74,192.69 147.65,185.00 C151.01,178.38 158.09,170.09 163.50,166.45 C168.46,163.10 179.15,159.21 185.00,158.62 C191.01,158.01 205.55,160.15 207.30,161.90 C208.54,163.14 213.02,163.41 212.97,162.25 C212.89,160.40 210.18,158.21 206.50,157.04 C195.79,153.62 191.00,149.43 191.00,143.50 C191.00,140.97 188.46,139.59 185.40,140.38 C186.39,140.10 187.74,140.00 189.58,140.00 C192.14,140.00 193.02,140.44 193.08,141.75 C193.24,145.19 194.13,149.51 194.81,150.14 C195.19,150.49 198.20,151.54 201.50,152.46 C204.80,153.39 210.33,155.69 213.78,157.58 C217.24,159.46 220.71,161.00 221.50,161.00 C222.29,161.00 224.45,159.67 226.30,158.04 L 229.67 155.08 L 237.03 162.62 L 234.52 164.98 C231.23,168.08 231.22,172.75 234.49,177.58 C235.85,179.59 237.71,183.77 238.61,186.87 C241.99,198.48 242.41,198.95 249.30,198.99 C252.05,199.00 252.10,199.10 251.80,204.25 L 251.50 209.50 L 247.33 209.80 C245.03,209.97 242.72,210.65 242.18,211.30 C241.64,211.96 240.01,216.06 238.55,220.41 C237.10,224.76 235.03,229.56 233.95,231.07 C231.38,234.67 231.41,240.15 234.00,242.50 C236.62,244.87 236.55,245.30 232.90,249.47 L 229.79 253.00 L 226.82 250.50 C222.82,247.14 220.72,247.33 210.89,251.92 C206.27,254.07 200.83,256.14 198.79,256.52 C194.97,257.23 193.62,259.37 192.81,266.00 C192.54,268.16 191.96,268.53 188.50,268.69 C182.74,268.98 182.00,268.39 182.00,263.54 C182.00,258.61 180.98,257.45 175.77,256.48 C173.71,256.10 168.54,254.03 164.28,251.89 C155.11,247.28 152.56,247.09 148.78,250.71 L 145.95 253.42 L 142.31 249.78 L 138.67 246.14 L 141.84 242.53 C143.58,240.55 145.00,238.46 145.00,237.88 C145.00,237.30 143.47,234.05 141.60,230.66 C139.72,227.27 137.39,221.80 136.40,218.50 C134.18,211.04 133.42,210.00 130.13,209.99 C123.96,209.95 123.00,209.13 123.00,203.88 L 123.00 199.00 L 127.85 199.00 C130.81,199.00 132.73,198.57 134.03,197.33 C133.07,198.43 131.87,199.00 130.46,199.00 C129.23,199.00 127.21,199.82 125.98,200.81 C122.67,203.49 124.04,206.75 128.81,207.54 C134.80,208.54 134.96,208.68 138.11,215.74 C144.52,230.10 145.57,232.00 147.08,232.00 C147.54,232.00 147.28,230.20 146.50,228.00 ZM 179.00 246.13 C180.93,246.56 186.08,246.70 190.45,246.47 C205.24,245.66 218.50,237.20 225.32,224.21 C232.13,211.26 232.44,197.89 226.23,185.22 C217.11,166.59 195.65,157.02 176.24,162.92 C168.24,165.35 162.05,168.99 156.91,174.30 C147.30,184.20 142.92,200.25 146.08,213.96 C149.57,229.10 163.54,242.75 179.00,246.13 ZM 300.42 316.39 C298.06,317.30 298.00,317.25 297.34,313.96 C296.71,310.79 293.71,308.00 290.92,308.00 C290.02,308.00 286.63,306.66 283.39,305.01 C276.69,301.62 273.85,301.29 271.50,303.64 C270.02,305.13 269.71,305.14 268.31,303.74 C266.91,302.34 266.91,301.96 268.38,299.87 C270.60,296.71 270.44,295.41 266.99,288.61 C265.34,285.37 264.00,281.94 264.00,280.99 C264.00,278.17 260.08,274.00 257.43,274.00 C255.50,274.00 255.00,273.48 255.00,271.50 C255.00,269.41 255.47,269.00 257.88,269.00 C261.26,269.00 262.30,267.90 264.01,262.50 C264.70,260.30 266.34,256.38 267.64,253.78 C270.44,248.19 270.57,246.29 268.32,243.80 C266.75,242.07 266.75,241.82 268.29,240.29 C269.82,238.75 270.07,238.75 271.80,240.32 C274.32,242.60 276.06,242.44 281.68,239.46 C284.31,238.06 288.40,236.42 290.76,235.83 C295.16,234.72 298.00,231.95 298.00,228.78 C298.00,227.67 298.75,227.00 300.00,227.00 C301.43,227.00 302.00,227.67 302.00,229.35 C302.00,232.03 304.36,234.44 308.00,235.48 C309.38,235.87 313.59,237.59 317.37,239.30 C324.07,242.33 324.30,242.36 327.20,240.70 C328.84,239.76 330.59,239.24 331.09,239.55 C332.31,240.31 332.25,243.73 331.00,244.50 C329.29,245.55 329.88,248.83 332.86,254.78 C334.43,257.93 336.04,261.85 336.44,263.49 C337.46,267.71 338.80,269.00 342.19,269.00 C346.55,269.00 345.73,272.85 341.04,274.37 C338.18,275.31 337.37,276.23 336.37,279.70 C335.70,282.02 333.91,286.69 332.38,290.08 C329.69,296.09 329.66,296.34 331.33,299.25 C332.66,301.56 332.78,302.56 331.88,303.64 C330.89,304.84 330.38,304.82 328.39,303.52 C325.47,301.61 322.08,301.62 319.51,303.56 C318.42,304.39 314.64,305.96 311.11,307.05 C304.69,309.03 302.09,311.06 302.03,314.14 C302.01,315.05 301.29,316.06 300.42,316.39 ZM 201.22 233.24 C198.11,234.63 193.77,235.48 188.50,235.74 C181.28,236.08 179.91,235.84 174.50,233.22 C159.38,225.90 152.21,208.52 157.67,192.43 C160.07,185.34 169.65,176.00 176.86,173.71 C193.09,168.55 209.65,175.47 217.04,190.50 C219.07,194.63 219.50,196.98 219.49,204.00 C219.47,211.30 219.09,213.23 216.74,217.70 C213.16,224.54 207.07,230.63 201.22,233.24 ZM 297.74 307.58 C299.62,311.53 300.34,311.79 301.60,308.97 C302.20,307.63 305.23,305.96 310.50,304.08 C314.90,302.50 320.08,300.65 322.00,299.95 C323.92,299.26 326.06,298.55 326.75,298.38 C327.44,298.21 328.01,296.81 328.03,295.28 C328.05,293.75 328.72,291.63 329.53,290.56 C330.34,289.49 331.00,287.47 331.00,286.06 C331.00,282.82 334.43,273.69 335.81,273.23 C337.13,272.79 332.28,265.50 330.68,265.50 C330.03,265.50 329.26,267.08 328.97,269.00 L 328.44 272.50 L 327.74 267.75 C326.78,261.27 324.00,256.18 318.78,251.36 C312.55,245.62 306.87,243.69 297.63,244.15 C290.84,244.50 289.60,244.90 284.32,248.52 C262.87,263.20 271.49,297.03 297.37,299.70 C306.67,300.66 318.51,295.13 323.03,287.72 C324.11,285.95 324.99,285.00 325.00,285.60 C325.00,287.52 320.53,293.43 318.18,294.60 C316.94,295.22 314.83,296.75 313.50,298.00 C311.82,299.57 309.41,300.44 305.78,300.79 C302.88,301.07 299.51,301.94 298.30,302.73 C296.18,304.11 296.16,304.27 297.74,307.58 ZM 309.08 286.07 C302.26,290.59 293.92,289.86 287.65,284.18 C282.49,279.52 281.38,269.41 285.27,262.57 C289.32,255.45 299.38,252.12 306.30,255.62 C313.63,259.32 317.23,264.74 317.23,272.07 C317.23,278.08 314.78,282.29 309.08,286.07 ZM 167.62 212.14 C167.69,211.51 167.81,210.55 167.88,210.00 C167.94,209.45 169.01,209.00 170.23,209.00 C172.55,209.00 181.57,200.23 184.71,194.92 C185.61,193.38 187.29,191.88 188.43,191.59 C191.45,190.80 196.88,185.33 197.64,182.30 C198.55,178.66 197.03,176.73 191.96,175.09 C188.44,173.95 186.51,173.91 181.99,174.84 C178.90,175.48 175.41,176.00 174.22,176.00 C173.04,176.00 171.59,176.90 171.00,178.00 C170.41,179.10 169.26,180.00 168.43,180.00 C167.61,180.00 166.03,181.53 164.92,183.41 C163.81,185.29 162.30,187.05 161.57,187.34 C159.53,188.12 157.49,204.10 158.91,208.17 C160.60,213.01 162.79,215.01 165.34,214.07 C166.53,213.63 167.56,212.76 167.62,212.14 ZM 328.82 279.17 C328.64,280.37 328.00,281.51 327.38,281.71 C326.67,281.94 326.44,281.14 326.75,279.54 C327.34,276.45 329.27,276.11 328.82,279.17 ZM 179.68 93.13 C167.28,98.20 154.97,105.01 146.35,111.82 C155.63,104.48 167.23,98.05 179.68,93.13 ZM 67.98 231.51 C70.72,225.81 74.16,219.25 77.40,213.74 C77.91,212.87 78.46,212.09 79.02,211.40 C76.88,214.33 73.87,219.92 68.38,230.71 C68.25,230.99 68.11,231.25 67.98,231.51 ZM 220.91 83.40 C216.52,83.73 212.13,84.26 207.83,84.98 C210.06,84.57 212.29,84.21 214.50,83.92 C216.24,83.69 218.43,83.52 220.91,83.40 ZM 83.38 208.22 C85.61,207.57 87.73,208.48 89.15,211.07 C87.95,208.87 85.82,207.84 83.38,208.22 ZM 128.11 166.62 C124.18,162.72 125.36,160.10 134.73,150.77 C125.39,160.15 124.21,162.75 128.11,166.62 ZM 56.18 11.53 C55.74,11.63 55.31,11.74 54.87,11.86 C49.91,13.17 44.91,15.11 40.68,17.29 C44.85,15.14 49.73,13.21 54.50,11.93 C55.03,11.79 55.57,11.65 56.18,11.53 ZM 63.01 245.84 C62.89,245.58 62.79,245.30 62.71,245.00 C62.63,244.71 62.74,244.10 63.00,243.23 C62.79,244.31 62.80,245.15 63.01,245.84 ZM 173.32 130.99 C172.79,131.98 172.24,133.46 171.89,134.98 C172.29,133.26 172.68,131.96 173.32,130.99 ZM 114.60 189.41 C114.73,189.29 114.86,189.18 115.01,189.08 C114.87,189.18 114.73,189.29 114.61,189.41 C113.23,190.71 113.03,193.27 113.00,199.13 C113.03,193.28 113.22,190.72 114.60,189.41 Z" fill="rgb(139,96,173)"/>
        <path d="M 411.87 444.55 C407.31,445.76 380.33,445.97 233.00,445.93 L 59.50 445.88 L 146.00 445.78 C215.91,445.70 226.75,445.52 202.50,444.87 C186.00,444.43 168.90,443.71 164.50,443.28 C157.43,442.59 156.50,442.27 156.50,440.50 C156.50,439.40 155.88,438.02 155.13,437.42 C154.03,436.57 154.45,436.09 157.13,435.09 C162.57,433.06 163.42,432.45 165.00,429.44 C166.86,425.88 168.55,424.00 169.88,424.00 C170.44,424.00 172.08,422.45 173.53,420.55 C176.89,416.14 186.26,406.65 192.32,401.53 C194.89,399.35 197.24,396.82 197.53,395.92 C197.81,395.01 200.26,392.41 202.96,390.13 L 207.87 385.99 L 229.50 384.56 L 228.84 384.50 C254.42,385.36 280.87,379.59 304.14,367.95 C314.07,362.98 331.22,351.85 333.88,348.65 C336.05,346.03 334.87,341.67 331.68,340.55 C331.44,340.47 331.21,340.39 330.99,340.32 C332.01,340.37 332.61,340.18 332.39,339.82 C332.11,339.37 330.80,339.00 329.49,339.00 C327.13,339.00 323.41,341.09 315.50,346.85 C313.30,348.46 309.48,350.78 307.00,352.01 C304.52,353.25 301.38,355.04 300.00,356.00 C298.62,356.96 294.58,358.77 291.00,360.04 C287.42,361.30 283.98,362.73 283.36,363.20 C282.73,363.68 281.83,363.96 281.36,363.82 C280.88,363.69 279.60,364.06 278.50,364.66 C276.74,365.61 272.30,366.81 264.00,368.58 C262.62,368.88 258.46,369.53 254.75,370.03 C242.46,371.69 225.26,369.70 228.80,367.03 C229.19,366.74 229.65,365.62 229.84,364.55 C230.22,362.38 235.55,357.10 241.22,353.28 C243.26,351.90 245.24,349.81 245.61,348.64 C245.98,347.46 248.57,344.48 251.35,342.00 C254.13,339.52 258.97,335.02 262.10,332.00 C278.82,315.84 279.92,315.39 283.87,323.17 C285.18,325.73 286.98,327.99 287.87,328.18 C288.77,328.37 294.00,328.26 299.50,327.94 L 309.50 327.36 L 299.31 327.18 C294.21,327.09 291.41,327.01 289.77,326.38 C294.69,327.47 310.56,327.24 311.76,325.75 C312.32,325.06 313.08,323.04 313.46,321.26 C314.02,318.65 315.02,317.64 318.68,316.02 C323.20,314.02 323.21,314.02 325.74,316.01 C330.06,319.41 332.42,318.60 339.50,311.31 C346.45,304.15 347.69,300.52 344.40,296.89 C343.06,295.41 342.99,294.56 343.98,291.55 C345.48,287.02 347.50,285.00 350.55,285.00 C354.29,285.00 355.84,281.51 356.13,272.38 C356.30,267.46 355.98,264.18 354.98,262.07 C356.11,263.37 356.99,263.92 357.00,263.30 C357.01,260.66 354.67,257.24 351.66,255.49 C345.22,251.74 345.40,248.94 352.55,241.50 C355.59,238.32 358.73,234.50 359.51,232.99 C362.37,227.45 366.85,228.79 371.03,236.44 C372.21,238.61 374.77,242.32 376.71,244.69 C379.60,248.22 380.81,248.97 383.37,248.85 L 386.50 248.70 L 383.66 248.28 C383.07,248.19 382.49,248.00 381.95,247.72 C382.58,247.92 383.33,248.00 384.30,248.00 C387.95,248.00 389.79,246.42 391.89,241.50 C392.60,239.85 396.08,233.15 399.64,226.60 C406.64,213.72 407.26,210.42 403.06,208.34 C402.25,207.94 401.52,207.68 400.84,207.59 C402.26,207.62 403.74,208.39 405.38,209.84 C407.18,211.42 407.23,211.38 406.55,209.00 C405.09,203.96 399.60,201.37 397.00,204.50 C394.80,207.15 393.00,206.27 393.00,202.56 C393.00,200.25 393.66,198.65 395.00,197.71 C396.10,196.95 397.47,194.96 398.04,193.31 C398.88,190.92 399.56,190.38 401.36,190.73 C403.12,191.06 404.20,190.30 406.18,187.30 C407.59,185.17 410.36,182.33 412.33,180.98 C414.31,179.62 416.50,177.42 417.21,176.09 C418.75,173.20 427.58,166.00 429.59,166.00 C430.37,166.00 431.00,165.17 431.00,164.16 C431.00,163.15 432.46,160.96 434.25,159.30 C436.04,157.64 438.17,155.28 439.00,154.06 C440.29,152.14 444.89,149.00 446.40,149.00 C448.38,149.00 450.28,174.40 451.32,214.50 C451.33,214.90 451.34,215.09 451.35,215.09 C451.49,215.09 451.68,183.12 451.78,140.00 C451.78,137.62 451.79,135.30 451.80,133.04 C451.83,120.13 451.85,109.24 451.85,100.01 C451.99,122.48 451.99,154.52 451.99,200.73 C451.99,209.52 451.99,218.81 451.99,228.65 L 452.00 401.81 L 449.66 408.72 C443.86,425.88 428.96,440.00 411.87,444.55 ZM 297.74 307.58 C296.16,304.27 296.18,304.11 298.30,302.73 C299.51,301.94 302.88,301.07 305.78,300.79 C309.41,300.44 311.82,299.57 313.50,298.00 C314.83,296.75 316.94,295.22 318.18,294.60 C320.53,293.43 325.00,287.52 325.00,285.60 C324.99,285.00 324.11,285.95 323.03,287.72 C320.76,291.44 316.64,294.69 311.92,296.88 C317.45,294.22 322.20,289.88 325.01,284.38 C325.73,282.97 326.25,281.78 326.62,280.53 C326.58,281.46 326.84,281.89 327.38,281.71 C328.00,281.51 328.64,280.37 328.82,279.17 C329.20,276.62 327.91,276.43 327.13,278.23 C327.41,276.48 327.49,274.41 327.48,271.50 C327.48,268.03 327.22,265.24 326.56,262.80 C327.09,264.36 327.48,266.00 327.74,267.75 L 328.44 272.50 L 328.97 269.00 C329.26,267.08 330.03,265.50 330.68,265.50 C332.28,265.50 337.13,272.79 335.81,273.23 C334.43,273.69 331.00,282.82 331.00,286.06 C331.00,287.47 330.34,289.49 329.53,290.56 C328.72,291.63 328.05,293.75 328.03,295.28 C328.01,296.81 327.44,298.21 326.75,298.38 C326.06,298.55 323.92,299.26 322.00,299.95 C320.08,300.65 314.90,302.50 310.50,304.08 C305.23,305.96 302.20,307.63 301.60,308.97 C300.34,311.79 299.62,311.53 297.74,307.58 ZM 300.99 357.52 C288.72,364.03 275.49,368.70 260.91,371.72 C274.79,368.85 288.59,363.91 300.99,357.52 ZM 272.32 269.19 C272.25,269.90 272.20,270.61 272.19,271.32 C272.20,262.79 276.00,254.21 284.32,248.52 C277.45,253.22 273.22,260.51 272.32,269.19 ZM 206.12 382.00 C192.69,379.61 179.51,375.34 167.09,369.45 C179.40,375.25 192.53,379.50 206.12,382.00 ZM 328.33 340.25 C327.24,340.59 325.84,341.41 323.52,343.00 C323.83,342.75 324.13,342.50 324.43,342.25 C325.79,341.13 327.06,340.47 328.33,340.25 ZM 395.66 210.90 C394.67,212.26 393.56,214.08 392.25,216.43 L 390.44 219.67 L 391.43 217.79 C392.97,214.82 394.36,212.54 395.66,210.90 ZM 255.67 296.99 C252.77,301.88 253.51,303.96 260.72,311.23 C253.49,304.04 252.74,301.93 255.67,296.99 ZM 449.51 46.37 C449.24,45.50 448.95,44.71 448.62,43.92 C448.00,42.42 447.26,40.96 446.38,39.17 C447.07,40.57 447.67,41.65 448.19,42.78 C448.69,43.85 449.13,44.95 449.51,46.37 ZM 287.89 324.63 C287.51,323.80 287.31,322.69 287.06,321.18 C287.26,322.39 287.57,323.69 287.89,324.63 ZM 390.01 220.45 L 390.00 220.47 L 389.99 216.98 C389.99,214.78 389.61,211.19 389.02,207.10 C389.61,211.19 389.99,214.78 390.00,217.00 ZM 347.34 258.18 C346.23,257.54 345.46,256.27 344.21,253.62 C345.44,256.23 346.25,257.52 347.34,258.18 ZM 367.06 222.54 C363.31,215.29 362.32,212.57 362.65,211.50 C362.32,212.56 363.35,215.34 367.06,222.54 ZM 379.38 245.25 L 379.41 245.29 C379.39,245.25 379.36,245.21 379.34,245.17 C378.75,244.11 378.18,243.08 377.63,242.08 C378.19,243.10 378.78,244.16 379.38,245.25 Z" fill="rgb(217,58,117)"/>
        </g>
        </svg> 

